<?xml version="1.0" encoding="UTF-8" standalone="no"?>
<!-- Created with Inkscape (http://www.inkscape.org/) -->

<svg
   width="207mm"
   height="50mm"
   viewBox="0 0 207 50"
   version="1.1"
   id="svg5"
   xmlns="http://www.w3.org/2000/svg"
   xmlns:svg="http://www.w3.org/2000/svg">
  <defs
     id="defs2" />
  <g
     id="layer1">
    <g
       aria-label="steer the right course"
       id="text4693"
       style="font-size:10.5833px;line-height:44.95;font-family:Yantramanav;-inkscape-font-specification:'Yantramanav weight=290';letter-spacing:1.651px;fill:#000000;stroke-width:0.FFFFFF">
      <path
         d="m 3.194371,46.151251 v -0.007 q 0.8042541,0 1.2798123,-0.349677 0.4825536,-0.35667 0.4825536,-0.867195 0,-0.517521 -0.4126173,-0.860202 Q 4.1384948,43.724457 3.1454153,43.500665 1.8865826,43.227917 1.3201086,42.794319 0.76062809,42.353728 0.76062809,41.563461 q 0,-0.790267 0.66438351,-1.314781 0.6643845,-0.531507 1.7693594,-0.531507 1.1119675,0 1.7833455,0.559482 0.6783706,0.55948 0.6503975,1.440663 l -0.013995,0.03497 H 4.9147667 q 0,-0.580461 -0.4895462,-0.986085 -0.4825527,-0.405625 -1.2728197,-0.405625 -0.7832735,0 -1.2168715,0.342683 -0.4266044,0.335689 -0.4266044,0.846216 0,0.503533 0.3706562,0.804254 0.3776507,0.293727 1.5175933,0.545494 1.1399426,0.251766 1.7273982,0.727325 0.5874537,0.468566 0.5874537,1.293801 0,0.818241 -0.6923576,1.342754 -0.6853641,0.524514 -1.8602734,0.524514 -1.1749123,0 -1.895243,-0.573468 -0.72033274,-0.580462 -0.68536508,-1.426677 l 0.013985,-0.04197 H 1.2851309 q 0.041965,0.706346 0.566474,1.056021 Q 2.3831123,46.1512 3.194361,46.1512 Z"
         style="font-weight:300;-inkscape-font-specification:'Yantramanav weight=250';stroke-width:0.358069;fill:#FFFFFF"
         id="path116073" />
      <path
         d="m 10.107384,38.101717 h 0.755299 v 1.741385 h 1.503606 v 0.615429 h -1.503606 v 4.440882 q 0,1.223865 0.888175,1.223865 0.370658,0 0.755301,-0.06295 l 0.11889,0.559482 q -0.405625,0.167844 -1.007066,0.167844 -1.510599,0 -1.510599,-1.888249 v -4.44088 H 8.9254786 v -0.615429 h 1.1819054 z"
         style="font-weight:300;-inkscape-font-specification:'Yantramanav weight=250';stroke-width:0.358069;fill:#FFFFFF"
         id="path116075" />
      <path
         d="m 20.594082,42.444689 q 0,-0.909156 -0.524513,-1.496612 -0.524514,-0.587456 -1.384717,-0.587456 -0.860201,0 -1.43367,0.629417 -0.566475,0.629416 -0.65739,1.608508 l 0.014,0.03497 h 3.986303 z m -1.839294,4.342973 q -1.286807,0 -2.133022,-0.944124 -0.839222,-0.944125 -0.839222,-2.391783 V 43.10208 q 0,-1.454651 0.832229,-2.419756 0.832227,-0.965104 2.063087,-0.965104 1.230858,0 1.944197,0.790266 0.720331,0.783274 0.720331,2.119035 v 0.643402 h -4.804544 v 0.181832 q 0,1.174912 0.608435,1.937205 0.615429,0.762291 1.608509,0.762291 1.328769,0 2.049099,-0.755298 l 0.321703,0.517519 q -0.85321,0.87419 -2.370802,0.87419 z"
         style="font-weight:300;-inkscape-font-specification:'Yantramanav weight=250';stroke-width:0.358069;fill:#FFFFFF"
         id="path116077" />
      <path
         d="m 29.472273,42.444689 q 0,-0.909156 -0.524514,-1.496612 -0.524514,-0.587456 -1.384716,-0.587456 -0.860201,0 -1.433671,0.629417 -0.566475,0.629416 -0.65739,1.608508 l 0.01399,0.03497 h 3.986303 z m -1.839295,4.342973 q -1.286806,0 -2.133022,-0.944124 -0.83922,-0.944125 -0.83922,-2.391783 V 43.10208 q 0,-1.454651 0.832227,-2.419756 0.832228,-0.965104 2.063087,-0.965104 1.230858,0 1.944196,0.790266 0.720333,0.783274 0.720333,2.119035 v 0.643402 h -4.804545 v 0.181832 q 0,1.174912 0.608436,1.937205 0.615429,0.762291 1.608508,0.762291 1.328768,0 2.0491,-0.755298 l 0.321702,0.517519 q -0.853209,0.87419 -2.370802,0.87419 z"
         style="font-weight:300;-inkscape-font-specification:'Yantramanav weight=250';stroke-width:0.358069;fill:#FFFFFF"
         id="path116079" />
      <path
         d="m 34.713835,46.640798 h -0.755299 v -6.811683 h 0.664383 l 0.09092,1.132949 v 0.07692 q 0.643403,-1.335762 1.979165,-1.335762 0.258761,0 0.49654,0.06995 l -0.09792,0.706344 -0.559481,-0.04196 q -0.692359,0 -1.15393,0.391637 -0.461571,0.391637 -0.664384,1.11197 z"
         style="font-weight:300;-inkscape-font-specification:'Yantramanav weight=250';stroke-width:0.358069;fill:#FFFFFF"
         id="path116081" />
      <path
         d="m 46.791483,38.101717 h 0.755298 v 1.741385 h 1.503606 v 0.615429 h -1.503606 v 4.440882 q 0,1.223865 0.888176,1.223865 0.370657,0 0.755301,-0.06295 l 0.11889,0.559482 q -0.405623,0.167844 -1.007066,0.167844 -1.510598,0 -1.510598,-1.888249 V 40.458526 H 45.60958 v -0.615429 h 1.181904 z"
         style="font-weight:300;-inkscape-font-specification:'Yantramanav weight=250';stroke-width:0.358069;fill:#FFFFFF"
         id="path116083" />
      <path
         d="m 55.865489,39.703231 q 2.223939,0 2.223939,2.741458 v 4.196109 h -0.7553 v -4.210095 q 0,-2.070082 -1.636483,-2.070082 -0.762293,0 -1.286806,0.391637 -0.524514,0.391638 -0.776281,1.090989 v 4.797551 h -0.755299 v -9.818894 h 0.755299 l -0.007,4.175128 q 0.720331,-1.293801 2.237924,-1.293801 z"
         style="font-weight:300;-inkscape-font-specification:'Yantramanav weight=250';stroke-width:0.358069;fill:#FFFFFF"
         id="path116085" />
      <path
         d="m 66.687876,42.444689 q 0,-0.909156 -0.524514,-1.496612 -0.524514,-0.587456 -1.384716,-0.587456 -0.860202,0 -1.433671,0.629417 -0.566475,0.629416 -0.65739,1.608508 l 0.014,0.03497 h 3.986305 z m -1.839295,4.342973 q -1.286806,0 -2.133022,-0.944124 -0.839223,-0.944125 -0.839223,-2.391783 V 43.10208 q 0,-1.454651 0.832229,-2.419756 0.832228,-0.965104 2.063087,-0.965104 1.230858,0 1.944197,0.790266 0.720332,0.783274 0.720332,2.119035 v 0.643402 h -4.804545 v 0.181832 q 0,1.174912 0.608437,1.937205 0.615428,0.762291 1.608508,0.762291 1.328768,0 2.049101,-0.755298 l 0.3217,0.517519 q -0.853209,0.87419 -2.370801,0.87419 z"
         style="font-weight:300;-inkscape-font-specification:'Yantramanav weight=250';stroke-width:0.358069;fill:#FFFFFF"
         id="path116087" />
      <path
         d="m 77.723488,46.640798 h -0.755299 v -6.811683 h 0.664384 l 0.09092,1.132949 v 0.07692 q 0.643402,-1.335762 1.979164,-1.335762 0.258759,0 0.49654,0.06995 l -0.09792,0.706344 -0.559482,-0.04196 q -0.692357,0 -1.15393,0.391637 -0.461571,0.391637 -0.664383,1.11197 z"
         style="font-weight:300;-inkscape-font-specification:'Yantramanav weight=250';stroke-width:0.358069;fill:#FFFFFF"
         id="path116089" />
      <path
         d="m 84.426697,39.829115 v 6.811683 h -0.748308 v -6.811683 z m 0,-3.007211 v 1.056021 h -0.748308 v -1.056021 z"
         style="font-weight:300;-inkscape-font-specification:'Yantramanav weight=250';stroke-width:0.358069;fill:#FFFFFF"
         id="path116091" />
      <path
         d="m 91.087945,40.003952 q 1.405694,0 2.12603,1.216872 l 0.09089,-1.090987 h 0.636406 v 6.720767 q 0,1.328768 -0.727324,2.084067 -0.727323,0.755299 -2.021126,0.755299 -0.503532,0 -1.056017,-0.118891 -0.552495,-0.11889 -0.958112,-0.328696 l 0.188823,-0.636409 q 0.825229,0.412617 1.811321,0.412617 0.986082,0 1.496612,-0.566474 0.510529,-0.559481 0.510529,-1.601514 v -0.853209 q -0.73432,1.077001 -2.112044,1.077001 -1.223868,0 -1.923221,-0.902164 -0.699353,-0.909156 -0.699353,-2.44773 l 0.007,-0.13287 q 0,-1.650469 0.699353,-2.615575 0.699354,-0.972099 1.930209,-0.972099 z m -1.881256,3.594667 v 0.125888 q 0,1.258833 0.51053,1.979164 0.51052,0.720332 1.489614,0.720332 1.405694,0 1.972174,-1.251838 v -3.16107 q -0.559483,-1.349748 -1.958189,-1.349748 -0.972097,0 -1.496612,0.797261 -0.517517,0.79726 -0.517517,2.140015 z"
         style="font-weight:300;-inkscape-font-specification:'Yantramanav weight=250';stroke-width:0.358069;fill:#FFFFFF"
         id="path116093" />
      <path
         d="m 101.14804,39.703231 q 2.22394,0 2.22394,2.741458 v 4.196109 h -0.7553 v -4.210095 q 0,-2.070082 -1.63649,-2.070082 -0.76229,0 -1.286803,0.391637 -0.524515,0.391638 -0.776276,1.090989 v 4.797551 h -0.755303 v -9.818894 h 0.755303 l -0.007,4.175128 q 0.720326,-1.293801 2.237919,-1.293801 z"
         style="font-weight:300;-inkscape-font-specification:'Yantramanav weight=250';stroke-width:0.358069;fill:#FFFFFF"
         id="path116095" />
      <path
         d="m 107.99811,38.101717 h 0.75529 v 1.741385 h 1.50361 v 0.615429 h -1.50361 v 4.440882 q 0,1.223865 0.88818,1.223865 0.37065,0 0.7553,-0.06295 l 0.11889,0.559482 q -0.40562,0.167844 -1.00707,0.167844 -1.51059,0 -1.51059,-1.888249 v -4.440881 h -1.18191 v -0.615429 h 1.18191 z"
         style="font-weight:300;-inkscape-font-specification:'Yantramanav weight=250';stroke-width:0.358069;fill:#FFFFFF"
         id="path116097" />
      <path
         d="m 120.25058,43.38182 h -0.007 q 0,1.27282 0.53849,2.021126 0.54551,0.748305 1.6155,0.748305 0.78328,0 1.33577,-0.44059 0.55948,-0.440593 0.55948,-1.17491 h 0.66439 l 0.014,0.03497 q 0.0349,0.930137 -0.73432,1.573541 -0.76929,0.643402 -1.8323,0.643402 -1.37072,0 -2.14001,-0.930137 -0.76928,-0.937131 -0.76928,-2.475704 v -0.265754 q 0,-1.524585 0.76928,-2.461716 0.77628,-0.937131 2.13301,-0.937131 1.13996,0 1.87427,0.671377 0.74132,0.664383 0.71335,1.727399 l -0.014,0.04196 h -0.67137 q 0,-0.811247 -0.5385,-1.300793 -0.53851,-0.49654 -1.36374,-0.49654 -1.05602,0 -1.6015,0.7553 -0.54551,0.748306 -0.54551,2.000145 z"
         style="font-weight:300;-inkscape-font-specification:'Yantramanav weight=250';stroke-width:0.358069;fill:#FFFFFF"
         id="path116099" />
      <path
         d="m 129.1288,43.151033 v 0.202814 q 0,1.230858 0.60842,2.014131 0.60844,0.783273 1.65047,0.783273 1.04204,0 1.65048,-0.783273 0.60842,-0.790267 0.60842,-2.014131 v -0.202814 q 0,-1.202883 -0.61542,-1.99315 -0.61544,-0.797262 -1.65047,-0.797262 -1.03504,0 -1.64348,0.790267 -0.60842,0.790269 -0.60842,2.000145 z m -0.75532,0.202814 v -0.202814 q 0,-1.524584 0.82524,-2.475703 0.82523,-0.95811 2.18198,-0.95811 1.35674,0 2.18197,0.95811 0.83224,0.951119 0.83224,2.475703 v 0.202814 q 0,1.524585 -0.82524,2.482697 -0.81823,0.951118 -2.18198,0.951118 -1.36374,0 -2.18897,-0.951118 -0.82524,-0.951118 -0.82524,-2.482697 z"
         style="font-weight:300;-inkscape-font-specification:'Yantramanav weight=250';stroke-width:0.358069;fill:#FFFFFF"
         id="path116101" />
      <path
         d="m 140.47568,46.787662 q -1.10498,0 -1.69943,-0.741313 -0.59444,-0.748305 -0.59444,-2.251912 v -3.951335 h 0.75529 v 3.95833 q 0,1.223864 0.40563,1.776352 0.41261,0.552487 1.22387,0.552487 1.64347,0 2.07706,-1.440664 v -4.846505 h 0.75532 v 6.811683 h -0.6714 l -0.0559,-1.111969 q -0.67837,1.244846 -2.19595,1.244846 z"
         style="font-weight:300;-inkscape-font-specification:'Yantramanav weight=250';stroke-width:0.358069;fill:#FFFFFF"
         id="path116103" />
      <path
         d="m 148.37478,46.640798 h -0.7553 v -6.811683 h 0.66438 l 0.091,1.132949 v 0.07692 q 0.6434,-1.335762 1.97916,-1.335762 0.25876,0 0.49655,0.06995 l -0.098,0.706344 -0.55948,-0.04196 q -0.69235,0 -1.15393,0.391637 -0.46157,0.391637 -0.66438,1.11197 z"
         style="font-weight:300;-inkscape-font-specification:'Yantramanav weight=250';stroke-width:0.358069;fill:#FFFFFF"
         id="path116105" />
      <path
         d="m 156.54663,46.151251 v -0.007 q 0.80425,0 1.27981,-0.349677 0.48254,-0.35667 0.48254,-0.867195 0,-0.517521 -0.41261,-0.860202 -0.40563,-0.342683 -1.3987,-0.566475 -1.25884,-0.272748 -1.8253,-0.706346 -0.55949,-0.440591 -0.55949,-1.230858 0,-0.790267 0.66438,-1.314781 0.66438,-0.531507 1.76937,-0.531507 1.11195,0 1.78333,0.559482 0.67838,0.55948 0.6504,1.440663 l -0.014,0.03497 h -0.69935 q 0,-0.580461 -0.48955,-0.986085 -0.48255,-0.405625 -1.27283,-0.405625 -0.78326,0 -1.21686,0.342683 -0.42661,0.335689 -0.42661,0.846216 0,0.503533 0.37067,0.804254 0.37765,0.293727 1.51758,0.545494 1.13994,0.251766 1.72739,0.727325 0.58748,0.468566 0.58748,1.293801 0,0.818241 -0.69237,1.342754 -0.68537,0.524514 -1.86028,0.524514 -1.17491,0 -1.89524,-0.573468 -0.72033,-0.580462 -0.68536,-1.426677 l 0.014,-0.04197 h 0.69237 q 0.0419,0.706346 0.56647,1.056021 0.53149,0.349675 1.34276,0.349675 z"
         style="font-weight:300;-inkscape-font-specification:'Yantramanav weight=250';stroke-width:0.358069;fill:#FFFFFF"
         id="path116107" />
      <path
         d="m 167.43194,42.444689 q 0,-0.909156 -0.5245,-1.496612 -0.52452,-0.587456 -1.38472,-0.587456 -0.86021,0 -1.43367,0.629417 -0.56648,0.629416 -0.65739,1.608508 l 0.014,0.03497 h 3.98629 z m -1.83928,4.342973 q -1.2868,0 -2.13302,-0.944124 -0.83923,-0.944125 -0.83923,-2.391783 V 43.10208 q 0,-1.454651 0.83224,-2.419756 0.83221,-0.965104 2.06309,-0.965104 1.23084,0 1.94419,0.790266 0.72033,0.783274 0.72033,2.119035 v 0.643402 h -4.80455 v 0.181832 q 0,1.174912 0.60843,1.937205 0.61544,0.762291 1.60852,0.762291 1.32876,0 2.04909,-0.755298 l 0.32171,0.517519 q -0.85321,0.87419 -2.3708,0.87419 z"
         style="font-weight:300;-inkscape-font-specification:'Yantramanav weight=250';stroke-width:0.358069;fill:#FFFFFF"
         id="path116109" />
    </g>
    <text
       xml:space="preserve"
       style="font-size:10.5833px;line-height:1.25;font-family:Yantramanav;-inkscape-font-specification:Yantramanav;stroke-width:0.264583"
       x="120.50944"
       y="136.32243"
       id="text50215"><tspan
         id="tspan50213"
         style="stroke-width:0.264583"
         x="120.50944"
         y="136.32243" /><tspan
         style="stroke-width:0.264583"
         id="tspan50217"
         x="120.50944"
         y="149.55156" /></text>
    <text
       xml:space="preserve"
       style="font-size:10.5833px;line-height:1.25;font-family:Yantramanav;-inkscape-font-specification:Yantramanav;stroke-width:0.264583"
       x="57.36084"
       y="50.849609"
       id="text65796"><tspan
         id="tspan65794"
         style="font-style:normal;font-variant:normal;font-weight:normal;font-stretch:normal;font-family:Algerian;-inkscape-font-specification:Algerian;stroke-width:0.264583"
         x="57.36084"
         y="50.849609" /><tspan
         style="font-style:normal;font-variant:normal;font-weight:normal;font-stretch:normal;font-family:Algerian;-inkscape-font-specification:Algerian;stroke-width:0.264583"
         x="57.36084"
         y="64.870758"
         id="tspan70720" /><tspan
         style="stroke-width:0.264583"
         x="57.36084"
         y="78.099884"
         id="tspan65798" /></text>
    <g
       aria-label="Starboard"
       id="text7570"
       style="font-size:29.9861px;line-height:1.25;font-family:'Bodoni Moda';-inkscape-font-specification:'Bodoni Moda';letter-spacing:-0.931333px;fill:#FFFFFF;stroke-width:0.264583"
       transform="matrix(1.353332,0,0,1.353332,-36.019968,-125.88927)">
      <path
         d="m 34.931332,117.19046 c -1.289402,0 -2.860644,-0.18164 -3.800209,-0.58145 -2.958925,-1.14684 -3.481202,-0.83875 -3.602099,-0.0102 l -0.509764,0.0548 -0.01827,-6.76507 0.456837,0.16444 c 0.159926,0.81962 0.725404,2.46951 1.075242,3.15919 0.349837,0.68969 0.945792,1.2346 1.495537,1.74436 0.559741,0.50976 1.219435,0.90958 1.979083,1.19944 0.769643,0.27987 1.581151,0.5477 2.580688,0.5477 1.059509,0 2.135384,-0.0173 2.905027,-0.37715 2.03443,-0.968 3.18713,-2.10521 3.219156,-4.29109 0,-0.87959 -0.163223,-2.18769 -0.593024,-2.78741 -0.429801,-0.60971 -1.211241,-1.36702 -1.930907,-1.80681 -0.709671,-0.44979 -1.738288,-0.71084 -2.752327,-0.97105 -0.977499,-0.23366 -1.826567,-0.48285 -2.858877,-0.87439 -1.819054,-0.61915 -3.402393,-1.68441 -4.31277,-3.23973 -0.901991,-1.97956 -0.700214,-4.101441 0.2984,-5.845632 1.154197,-1.979421 3.551002,-3.169678 5.766183,-3.201882 0.989541,0 2.423963,0.34263 3.243583,0.662481 1.7485,0.47456 1.799352,1.177287 2.800989,-0.0047 h 0.494771 l 0.127893,5.760195 H 40.55463 c -0.759743,-2.722923 -1.625086,-4.384217 -3.911795,-5.37019 -2.07658,-0.708314 -4.625002,-0.345211 -6.21401,1.088242 -1.022535,1.099313 -1.118495,2.219805 -1.123502,3.069363 -0.01148,1.947653 1.884574,3.131113 4.38597,4.076683 2.46602,0.84937 4.691173,1.15406 6.881835,2.49741 2.412932,1.52639 2.519039,3.51115 2.531926,5.593 -0.420416,4.32143 -4.504484,6.48532 -8.173721,6.50953 z"
         id="path59236"
         style="fill:#FFFFFF" />
      <path
         d="m 48.401878,117.01234 c -1.478386,0.0119 -2.972974,-0.50582 -3.412025,-1.95089 -0.139935,-0.54975 -0.209902,-1.09949 -0.209902,-1.64924 V 99.469415 c 0.280242,0.245554 0.934566,0.399075 1.454325,0.209163 0.519759,-0.189912 0.929569,-0.394817 1.22943,-0.614715 v 15.053017 c 0,0.74966 0.08996,1.24943 0.269875,1.49931 0.189912,0.24988 0.5229,0.58779 1.27011,0.62287 1.017245,0.0949 1.526785,-0.14418 1.911914,-0.44333 0.529286,-0.41112 0.720715,-1.03867 0.73676,-2.00451 l 0.442324,0.0864 c -0.08071,1.02984 -0.359464,1.6837 -0.88366,2.20309 -0.515757,0.51102 -1.264893,0.89556 -2.809151,0.93161 z m -5.630996,-13.46556 v -0.58472 h 7.901337 v 0.58472 z"
         id="path59238"
         style="fill:#FFFFFF" />
      <path
         d="m 71.111911,110.37649 c 0,-0.87959 0.08996,-1.76918 0.269875,-2.66876 0.189912,-0.89958 0.469782,-1.7242 0.839611,-2.47385 0.379824,-0.74966 0.849606,-1.35438 1.409346,-1.81416 0.569736,-0.45979 1.239426,-0.68968 2.009069,-0.68968 0.929993,-0.0614 2.060498,0.43788 2.538013,1.39161 0.370923,0.74083 0.21799,1.90424 0.102884,2.34124 -0.324672,0.92178 -1.925135,0.62139 -2.222489,0.4533 -0.646553,-0.36547 -0.151818,-1.62913 -0.0762,-2.56002 0.04523,-0.55685 -0.254738,-1.02467 -0.495723,-1.02641 -0.599722,0 -1.060921,0.2049 -1.570685,0.61471 -0.499768,0.39982 -0.934566,0.94457 -1.304395,1.63425 -0.369829,0.67968 -0.654697,1.43933 -0.854604,2.27894 -0.199907,0.82961 -0.299861,1.66923 -0.299861,2.51883 z m 0.34484,-7.36159 v 13.23227 h 2.653966 v 0.56134 h -7.837151 v -0.56134 h 2.559401 v -12.78786 l -2.501969,-0.0234 v -0.44441 z"
         id="path59242"
         style="fill:#FFFFFF" />
      <path
         d="m 87.022292,117.14907 c -1.219435,0 -2.24396,-0.41981 -3.073575,-1.25942 -0.829615,-0.84961 -1.409346,-1.98408 -1.739193,-3.40342 v 4.36298 h -5.489745 v -0.58473 h 2.805989 V 94.94436 h -2.805989 v -0.584729 h 5.489745 v 13.073939 c 0.329847,-1.42934 0.909578,-2.55881 1.739193,-3.38843 0.829615,-0.83961 1.85414,-1.25941 3.073575,-1.25941 1.049514,0 2.044053,0.28486 2.983617,0.8546 0.939565,0.56973 1.70421,1.38935 2.293937,2.45886 0.589727,1.0695 0.88459,2.35391 0.88459,3.85321 0,1.49931 -0.294863,2.78871 -0.88459,3.86821 -0.589727,1.0695 -1.354372,1.89412 -2.293937,2.47385 -0.939564,0.56974 -1.934103,0.85461 -2.983617,0.85461 z m -0.539749,-0.80963 c 0.769643,0 1.424339,-0.25488 1.964089,-0.76464 0.549745,-0.50977 0.964553,-1.23943 1.244423,-2.18899 0.279871,-0.94956 0.419806,-2.09403 0.419806,-3.43341 0,-1.33938 -0.139935,-2.47885 -0.419806,-3.41841 -0.27987,-0.94956 -0.694678,-1.67423 -1.244423,-2.17399 -0.53975,-0.50977 -1.194446,-0.76465 -1.964089,-0.76465 -0.749653,0 -1.449328,0.24988 -2.099027,0.74965 -0.649699,0.49977 -1.174456,1.22443 -1.574271,2.17399 -0.399814,0.93957 -0.599721,2.08404 -0.599721,3.43341 0,1.34938 0.199907,2.49884 0.599721,3.4484 0.399815,0.94956 0.924572,1.67923 1.574271,2.18899 0.649699,0.49977 1.349374,0.74965 2.099027,0.74965 z"
         id="path59244"
         style="fill:#FFFFFF" />
      <path
         d="m 102.42683,117.58469 q -2.30641,0 -3.991244,-0.98954 -1.684819,-0.98954 -2.600839,-2.62379 -0.91602,-1.63424 -0.91602,-3.58333 0,-1.9491 0.91602,-3.58334 0.91602,-1.63425 2.600839,-2.60879 1.684834,-0.98954 3.991244,-0.98954 2.3064,0 3.97487,0.98954 1.68482,0.97454 2.58448,2.60879 0.91602,1.63424 0.91602,3.58334 0,1.94909 -0.91602,3.58333 -0.89966,1.63425 -2.58448,2.62379 -1.66847,0.98954 -3.97487,0.98954 z m 0,-0.58473 q 1.30859,0 2.12646,-0.62971 0.83424,-0.62971 1.25954,-1.61925 0.44165,-1.00453 0.58887,-2.159 0.16357,-1.15446 0.16357,-2.20397 0,-1.06451 -0.16357,-2.20398 -0.14722,-1.15447 -0.58887,-2.14401 -0.4253,-1.00453 -1.25954,-1.63424 -0.81787,-0.62971 -2.12646,-0.62971 -1.32497,0 -2.14284,0.62971 -0.817872,0.62971 -1.259533,1.63424 -0.425296,0.98954 -0.588871,2.14401 -0.147209,1.13947 -0.147209,2.20398 0,1.04951 0.147209,2.20397 0.163575,1.15447 0.588871,2.159 0.441661,0.98954 1.259533,1.61925 0.81787,0.62971 2.14284,0.62971 z"
         id="path59246"
         style="fill:#FFFFFF;stroke-width:0.27636" />
      <path
         d="m 121.45564,117.11111 c -0.46979,0 -0.90459,-0.085 -1.3044,-0.25488 -0.38982,-0.15992 -0.70468,-0.4298 -0.94456,-0.80962 -0.2399,-0.38982 -0.35984,-0.90957 -0.35984,-1.55927 v -6.80686 c 0,-0.71966 -0.06,-1.40934 -0.17991,-2.06904 -0.11995,-0.65969 -0.37483,-1.25791 -0.76465,-1.67771 -0.37982,-0.41981 -0.96955,-0.62971 -1.76918,-0.62971 -1.52816,0.0927 -1.98673,0.50274 -2.36507,0.81653 -0.40635,0.33702 -0.59659,1.05375 -0.53702,1.68868 0.0614,0.65445 0.37506,1.28558 0.0959,1.61402 -0.21827,0.25683 -0.65601,0.33125 -0.95107,0.32046 -0.4074,-0.0149 -0.85815,-0.028 -1.10561,-0.45688 -0.42571,-0.73779 -0.0542,-2.10447 0.42488,-2.70994 0.30986,-0.37982 0.71967,-0.75814 1.22943,-1.01802 0.51976,-0.26987 1.09949,-0.41631 1.73919,-0.55625 0.6497,-0.14993 1.3144,-0.22489 1.99408,-0.22489 1.37936,0 2.40889,0.23989 3.08857,0.71966 0.68968,0.47978 1.14947,1.0945 1.37936,1.84415 0.2299,0.74965 0.34484,1.52929 0.34484,2.33892 v 7.37658 c 0,0.32984 0.055,0.60971 0.16492,0.83961 0.11995,0.22989 0.36484,0.34484 0.73466,0.34484 0.25988,0 0.54475,-0.10495 0.85461,-0.31485 0.31985,-0.2199 0.56473,-0.49478 0.73465,-0.82462 l 0.28487,0.53975 c -0.25988,0.4198 -0.62471,0.76964 -1.09449,1.04952 -0.46978,0.27985 -1.03451,0.41979 -1.69421,0.41979 z m -6.98677,0 c -1.2994,0 -2.33891,-0.32984 -3.11855,-0.98953 -0.76964,-0.66969 -1.15446,-1.57427 -1.15446,-2.71375 0,-1.33938 0.57473,-2.38889 1.7242,-3.14854 1.14946,-0.76964 1.96188,-0.65837 4.62006,-1.22061 0.82781,-0.22049 2.16632,-0.48711 2.30613,-1.04908 0.31108,-1.25038 2.55298,-0.24951 0.75072,0.40124 -0.80113,0.28926 -3.17012,1.31229 -4.55749,1.71234 -1.46578,0.56827 -1.71361,1.54473 -1.71361,1.54473 -0.24988,0.54975 -0.17638,1.00027 -0.17638,1.55002 0,0.49977 0.075,0.97955 0.22489,1.43934 0.15992,0.45978 0.40481,0.83961 0.73466,1.13947 0.32984,0.29986 0.75964,0.44979 1.2894,0.44979 0.54974,0 1.08949,-0.17992 1.61925,-0.53975 0.52975,-0.36983 0.96455,-0.91458 1.3044,-1.63424 0.34983,-0.72967 0.52475,-1.63925 0.52475,-2.72874 h 0.34484 c 0,1.13947 -0.18492,2.144 -0.55474,3.01361 -0.35984,0.86959 -0.88959,1.54927 -1.58926,2.03905 -0.69968,0.48976 -1.55928,0.73465 -2.57881,0.73465 z"
         id="path59248-6-9"
         style="font-size:29.9861px;line-height:1.25;font-family:'Bodoni Moda';-inkscape-font-specification:'Bodoni Moda';letter-spacing:-0.931333px;fill:#FFFFFF;stroke-width:0.264583" />
      <path
         d="m 62.860959,116.93822 c -0.469787,0 -0.904587,-0.085 -1.3044,-0.25488 -0.38982,-0.15992 -0.704673,-0.4298 -0.94456,-0.80963 -0.239893,-0.38981 -0.35984,-0.90957 -0.35984,-1.55927 v -6.80684 c 0,-0.71967 -0.05997,-1.40935 -0.17991,-2.06904 -0.119947,-0.6597 -0.37483,-1.25791 -0.76465,-1.67772 -0.37982,-0.4198 -0.969547,-0.62971 -1.76918,-0.62971 -1.528157,0.0927 -1.986723,0.50274 -2.365063,0.81653 -0.40635,0.33703 -0.596589,1.05375 -0.537021,1.68868 0.0614,0.65445 0.375062,1.28558 0.09594,1.61402 -0.218267,0.25683 -0.656015,0.33125 -0.951072,0.32047 -0.407401,-0.0149 -0.858151,-0.028 -1.105611,-0.45689 -0.425709,-0.73778 -0.05419,-2.10447 0.424885,-2.70993 0.309853,-0.37983 0.719663,-0.75814 1.22943,-1.01802 0.51976,-0.26988 1.09949,-0.41632 1.73919,-0.55625 0.6497,-0.14993 1.314393,-0.2249 1.99408,-0.2249 1.37936,0 2.408883,0.23989 3.08857,0.71967 0.68968,0.47977 1.149467,1.09449 1.37936,1.84414 0.229893,0.74965 0.34484,1.52929 0.34484,2.33892 v 7.37657 c 0,0.32985 0.05497,0.60972 0.16492,0.83961 0.119947,0.2299 0.364833,0.34484 0.73466,0.34484 0.25988,0 0.54475,-0.10495 0.85461,-0.31485 0.319847,-0.2199 0.56473,-0.49477 0.73465,-0.82462 l 0.28487,0.53975 c -0.25988,0.41981 -0.62471,0.76965 -1.09449,1.04952 -0.46978,0.27987 -1.034517,0.4198 -1.69421,0.4198 z m -6.98677,0 c -1.299393,0 -2.33891,-0.32984 -3.11855,-0.98954 -0.76964,-0.66968 -1.15446,-1.57426 -1.15446,-2.71374 0,-1.33938 0.574733,-2.38889 1.7242,-3.14854 1.149467,-0.76964 1.961884,-0.65837 4.620064,-1.22061 0.827813,-0.22049 2.166318,-0.48711 2.306129,-1.04908 0.311083,-1.25038 2.552981,-0.2495 0.750722,0.40124 -0.801126,0.28927 -3.170124,1.31229 -4.557486,1.71235 -1.465789,0.56826 -1.713616,1.54472 -1.713616,1.54472 -0.24988,0.54975 -0.176383,1.00027 -0.176383,1.55002 0,0.49977 0.07496,0.97955 0.22489,1.43933 0.159927,0.45979 0.404813,0.83961 0.73466,1.13947 0.329847,0.29986 0.759647,0.44979 1.2894,0.44979 0.549747,0 1.089497,-0.17991 1.61925,-0.53975 0.529753,-0.36982 0.964553,-0.91457 1.3044,-1.63424 0.349833,-0.72966 0.52475,-1.63924 0.52475,-2.72873 h 0.34484 c 0,1.13947 -0.184913,2.144 -0.55474,3.0136 -0.359833,0.8696 -0.889587,1.54928 -1.58926,2.03905 -0.699673,0.48978 -1.559277,0.73466 -2.57881,0.73466 z"
         id="path59248-6"
         style="font-size:29.9861px;line-height:1.25;font-family:'Bodoni Moda';-inkscape-font-specification:'Bodoni Moda';letter-spacing:-0.931333px;fill:#FFFFFF;stroke-width:0.264583" />
      <path
         d="m 142.93206,117.04053 q -1.57427,0 -2.98361,-0.8546 -1.40935,-0.85461 -2.30893,-2.45886 -0.88459,-1.60426 -0.88459,-3.85322 0,-2.24896 0.88459,-3.85321 0.89958,-1.61925 2.30893,-2.47386 1.40934,-0.86959 2.98361,-0.86959 1.82916,0 3.05859,1.27441 1.22943,1.25941 1.7242,3.38843 V 94.850816 h -1.96409 v -0.584729 h 4.67783 v 21.904843 h 1.94909 v 0.58473 h -4.66283 v -4.34798 q -0.49477,2.12901 -1.7242,3.38843 -1.22943,1.24442 -3.05859,1.24442 z m 0.52476,-0.80963 q 1.12448,0 2.08403,-0.74965 0.97455,-0.74965 1.57427,-2.159 0.59973,-1.42434 0.59973,-3.4484 0,-2.02406 -0.59973,-3.4484 -0.59972,-1.42434 -1.57427,-2.17399 -0.95955,-0.76465 -2.08403,-0.76465 -1.16946,0 -1.97908,0.76465 -0.80963,0.76464 -1.22943,2.18898 -0.40482,1.42434 -0.40482,3.43341 0,2.00907 0.40482,3.43341 0.4198,1.40935 1.22943,2.17399 0.80962,0.74965 1.97908,0.74965 z"
         id="path59252"
         style="fill:#FFFFFF" />
      <path
         d="m 129.08264,110.30025 c 0,-0.87959 0.09,-1.76918 0.26987,-2.66876 0.18992,-0.89958 0.46979,-1.7242 0.83961,-2.47385 0.37983,-0.74966 0.84961,-1.35438 1.40935,-1.81416 0.56974,-0.45979 1.23943,-0.68968 2.00907,-0.68968 0.92999,-0.0614 2.0605,0.43788 2.53801,1.39161 0.37093,0.74083 0.21799,1.90424 0.10289,2.34124 -0.32467,0.92178 -1.92514,0.62139 -2.22249,0.4533 -0.64656,-0.36547 -0.15182,-1.62913 -0.0762,-2.56002 0.0452,-0.55685 -0.25474,-1.02467 -0.49572,-1.02641 -0.59973,0 -1.06093,0.2049 -1.57069,0.61471 -0.49977,0.39982 -0.93457,0.94457 -1.30439,1.63425 -0.36983,0.67968 -0.6547,1.43933 -0.85461,2.27894 -0.19991,0.82961 -0.29986,1.66923 -0.29986,2.51883 z m 0.34484,-7.36159 v 13.23227 h 2.65396 v 0.56134 h -7.83715 v -0.56134 h 2.5594 v -12.78786 l -2.50196,-0.0234 v -0.44441 z"
         id="path59242-7"
         style="font-size:29.9861px;line-height:1.25;font-family:'Bodoni Moda';-inkscape-font-specification:'Bodoni Moda';letter-spacing:-0.931333px;fill:#FFFFFF;stroke-width:0.264583" />
    </g>
    <rect
       id="rect80861"
       width="30.972975"
       height="30.972975"
       x="175.44865"
       y="0.93706399"
       style="fill:#FFFFFF;stroke-width:0.358069" />
  </g>
</svg>
